<svg width="24" height="24" viewBox="0 0 24 24" fill="none" xmlns="http://www.w3.org/2000/svg">
<path d="M13.75 16.2501C13.6515 16.2506 13.5538 16.2313 13.4628 16.1936C13.3718 16.1558 13.2893 16.1002 13.22 16.0301L9.72001 12.5301C9.57956 12.3895 9.50067 12.1988 9.50067 12.0001C9.50067 11.8013 9.57956 11.6107 9.72001 11.4701L13.22 8.00009C13.361 7.9087 13.5285 7.86728 13.6958 7.88247C13.8631 7.89765 14.0205 7.96857 14.1427 8.08385C14.2649 8.19913 14.3448 8.3521 14.3697 8.51823C14.3946 8.68437 14.363 8.85405 14.28 9.00009L11.28 12.0001L14.28 15.0001C14.4205 15.1407 14.4994 15.3313 14.4994 15.5301C14.4994 15.7288 14.4205 15.9195 14.28 16.0601C14.1353 16.1908 13.9448 16.2591 13.75 16.2501Z" fill="#64748B"/>
</svg>
