<svg width="24" height="24" viewBox="0 0 24 24" fill="none" xmlns="http://www.w3.org/2000/svg">
<path d="M10.25 16.25C10.1493 16.2466 10.0503 16.2227 9.9592 16.1797C9.86806 16.1367 9.78666 16.0755 9.72 16C9.57955 15.8593 9.50066 15.6687 9.50066 15.47C9.50066 15.2712 9.57955 15.0806 9.72 14.94L12.72 11.94L9.72 8.93996C9.66067 8.79595 9.64765 8.63704 9.68275 8.4853C9.71785 8.33355 9.79932 8.1965 9.91585 8.09316C10.0324 7.98982 10.1782 7.92532 10.333 7.90862C10.4879 7.89192 10.6441 7.92385 10.78 7.99996L14.28 11.5C14.4204 11.6406 14.4993 11.8312 14.4993 12.03C14.4993 12.2287 14.4204 12.4193 14.28 12.56L10.78 16C10.7133 16.0755 10.6319 16.1367 10.5408 16.1797C10.4497 16.2227 10.3507 16.2466 10.25 16.25Z" fill="#64748B"/>
</svg>
