<svg width="12" height="10" viewBox="0 0 12 10" fill="none" xmlns="http://www.w3.org/2000/svg">
<path d="M7 9.24993C6.90146 9.2504 6.80382 9.23118 6.71281 9.1934C6.6218 9.15562 6.53925 9.10004 6.47 9.02993C6.32955 8.88931 6.25066 8.69868 6.25066 8.49993C6.25066 8.30118 6.32955 8.11056 6.47 7.96993L9.47 4.96993L6.47 1.96993C6.39985 1.82466 6.37841 1.66064 6.40887 1.50221C6.43932 1.34379 6.52005 1.19941 6.63906 1.0905C6.75808 0.981592 6.90904 0.913961 7.06953 0.897645C7.23003 0.88133 7.39151 0.917199 7.53 0.99993L11.03 4.49993C11.1705 4.64056 11.2493 4.83118 11.2493 5.02993C11.2493 5.22868 11.1705 5.4193 11.03 5.55993L7.53 8.99993C7.46334 9.07549 7.38194 9.13664 7.2908 9.17963C7.19967 9.22262 7.10071 9.24654 7 9.24993Z" fill="#64748B"/>
<path d="M1.5 9.24998C1.30706 9.23523 1.12757 9.14548 1 8.99998C0.877015 8.86248 0.809021 8.68446 0.809021 8.49998C0.809021 8.3155 0.877015 8.13749 1 7.99998L4 4.99998L1 1.99998C0.933163 1.86003 0.911355 1.70279 0.937582 1.54993C0.963809 1.39707 1.03678 1.2561 1.14645 1.14643C1.25612 1.03676 1.39709 0.963787 1.54995 0.93756C1.70282 0.911333 1.86005 0.933141 2 0.999982L5.5 4.49998C5.64045 4.64061 5.71934 4.83123 5.71934 5.02998C5.71934 5.22873 5.64045 5.41936 5.5 5.55998L2 8.99998C1.87243 9.14548 1.69295 9.23523 1.5 9.24998Z" fill="#64748B"/>
</svg>
