<svg width="12" height="10" viewBox="0 0 12 10" fill="none" xmlns="http://www.w3.org/2000/svg">
<path d="M5.00001 9.25009C4.90147 9.25056 4.80383 9.23134 4.71282 9.19356C4.6218 9.15578 4.53925 9.1002 4.47001 9.03009L1.00001 5.53009C0.85956 5.38947 0.78067 5.19884 0.78067 5.00009C0.78067 4.80134 0.85956 4.61072 1.00001 4.47009L4.47001 1.00009C4.61097 0.9087 4.77853 0.867279 4.94583 0.882467C5.11313 0.897654 5.27049 0.968571 5.39269 1.08385C5.51489 1.19913 5.59484 1.3521 5.61974 1.51823C5.64464 1.68437 5.61304 1.85405 5.53001 2.00009L2.53001 5.00009L5.53001 8.00009C5.67046 8.14072 5.74935 8.33134 5.74935 8.53009C5.74935 8.72884 5.67046 8.91947 5.53001 9.06009C5.38528 9.19078 5.19481 9.25906 5.00001 9.25009Z" fill="#64748B"/>
<path d="M10.5 9.24998C10.3071 9.23523 10.1276 9.14548 10 8.99998L6.50001 5.49998C6.35956 5.35936 6.28067 5.16873 6.28067 4.96998C6.28067 4.77123 6.35956 4.58061 6.50001 4.43998L10 0.999982C10.14 0.933141 10.2972 0.911333 10.4501 0.93756C10.6029 0.963787 10.7439 1.03676 10.8536 1.14643C10.9632 1.2561 11.0362 1.39707 11.0624 1.54993C11.0887 1.70279 11.0669 1.86003 11 1.99998L8.00001 4.99998L11 7.99998C11.123 8.13749 11.191 8.3155 11.191 8.49998C11.191 8.68446 11.123 8.86248 11 8.99998C10.8724 9.14548 10.693 9.23523 10.5 9.24998Z" fill="#64748B"/>
</svg>
